<svg xmlns="http://www.w3.org/2000/svg" width="1200" height="700" viewBox="0 0 1200 700" role="img" aria-label="LOTLGuard architecture overview">
  <defs>
    <linearGradient id="bg" x1="0" y1="0" x2="1" y2="1">
      <stop offset="0%" stop-color="#0b1f34"/>
      <stop offset="100%" stop-color="#16466d"/>
    </linearGradient>
    <linearGradient id="card" x1="0" y1="0" x2="1" y2="1">
      <stop offset="0%" stop-color="#f4fbff"/>
      <stop offset="100%" stop-color="#dff2ff"/>
    </linearGradient>
    <linearGradient id="core" x1="0" y1="0" x2="1" y2="1">
      <stop offset="0%" stop-color="#8ae8ff"/>
      <stop offset="100%" stop-color="#4fc8ff"/>
    </linearGradient>
    <marker id="arrow" viewBox="0 0 10 10" refX="9" refY="5" markerWidth="8" markerHeight="8" orient="auto">
      <path d="M0 0 L10 5 L0 10 Z" fill="#72d8ff"/>
    </marker>
    <filter id="shadow" x="-20%" y="-20%" width="140%" height="140%">
      <feDropShadow dx="0" dy="4" stdDeviation="4" flood-color="#001528" flood-opacity="0.32"/>
    </filter>
  </defs>

  <rect width="1200" height="700" fill="url(#bg)"/>
  <text x="600" y="56" fill="#ffffff" text-anchor="middle" font-family="Segoe UI, Arial, sans-serif" font-size="36" font-weight="700">LOTLGuard Detection Pipeline</text>
  <text x="600" y="84" fill="#b8eaff" text-anchor="middle" font-family="Segoe UI, Arial, sans-serif" font-size="16">Simulation -> Parsing -> Feature Engineering -> ML Detection -> Scoring -> Response -> Dashboard</text>

  <g filter="url(#shadow)">
    <rect x="38" y="130" width="152" height="90" rx="12" fill="url(#card)"/>
    <rect x="208" y="130" width="152" height="90" rx="12" fill="url(#card)"/>
    <rect x="378" y="130" width="152" height="90" rx="12" fill="url(#card)"/>
    <rect x="548" y="130" width="152" height="90" rx="12" fill="url(#core)"/>
    <rect x="718" y="130" width="152" height="90" rx="12" fill="url(#card)"/>
    <rect x="888" y="130" width="152" height="90" rx="12" fill="url(#card)"/>
    <rect x="1058" y="130" width="104" height="90" rx="12" fill="url(#card)"/>
  </g>

  <g fill="#12324b" font-family="Segoe UI, Arial, sans-serif" text-anchor="middle">
    <text x="114" y="164" font-size="14" font-weight="700">Simulation</text>
    <text x="114" y="186" font-size="12">shared_kernel_app.py</text>

    <text x="284" y="164" font-size="14" font-weight="700">Injection</text>
    <text x="284" y="186" font-size="12">inject_command.py</text>

    <text x="454" y="164" font-size="14" font-weight="700">Parsing</text>
    <text x="454" y="186" font-size="12">falco_parser.py</text>

    <text x="624" y="164" font-size="14" font-weight="700">ML Detection</text>
    <text x="624" y="186" font-size="12">Isolation Forest</text>

    <text x="794" y="164" font-size="14" font-weight="700">Threat Score</text>
    <text x="794" y="186" font-size="12">threat_scoring.py</text>

    <text x="964" y="164" font-size="14" font-weight="700">Response</text>
    <text x="964" y="186" font-size="12">incident_response.py</text>

    <text x="1110" y="164" font-size="14" font-weight="700">SOC UI</text>
    <text x="1110" y="186" font-size="12">dashboard/app.py</text>
  </g>

  <g stroke="#72d8ff" stroke-width="4" fill="none" marker-end="url(#arrow)">
    <path d="M190 175 L208 175"/>
    <path d="M360 175 L378 175"/>
    <path d="M530 175 L548 175"/>
    <path d="M700 175 L718 175"/>
    <path d="M870 175 L888 175"/>
    <path d="M1040 175 L1058 175"/>
  </g>

  <g filter="url(#shadow)">
    <rect x="70" y="286" width="500" height="150" rx="14" fill="#f1f9ff"/>
    <rect x="630" y="286" width="500" height="150" rx="14" fill="#f1f9ff"/>
  </g>

  <g fill="#173e5d" font-family="Segoe UI, Arial, sans-serif">
    <text x="94" y="322" font-size="18" font-weight="700">Key Inputs</text>
    <text x="94" y="350" font-size="15">- LOTL commands from simulator and logs</text>
    <text x="94" y="376" font-size="15">- Kernel/Falco telemetry events</text>
    <text x="94" y="402" font-size="15">- Pod/user metadata for context</text>

    <text x="654" y="322" font-size="18" font-weight="700">Key Outputs</text>
    <text x="654" y="350" font-size="15">- Threat score (0 to 100)</text>
    <text x="654" y="376" font-size="15">- MITRE ATT&CK mapped techniques</text>
    <text x="654" y="402" font-size="15">- Automated quarantine and dashboard alerting</text>
  </g>

  <rect x="38" y="480" width="1124" height="170" rx="16" fill="#0e2b45" opacity="0.92"/>
  <text x="600" y="518" fill="#ffffff" text-anchor="middle" font-family="Segoe UI, Arial, sans-serif" font-size="22" font-weight="700">Technology Core</text>
  <text x="140" y="560" fill="#c7ebff" font-family="Segoe UI, Arial, sans-serif" font-size="15">Flask • Scikit-learn • Python • Joblib • Falco • Kubernetes • JSON</text>
  <text x="140" y="590" fill="#c7ebff" font-family="Segoe UI, Arial, sans-serif" font-size="15">Low-latency detection with explainable scoring and SOC-ready visualization</text>
</svg>
